<svg height="512" viewBox="0 0 74 74" width="512" xmlns="http://www.w3.org/2000/svg"><g id="line_color" data-name="line color"><path d="m52.664 47.635c1.056 7.073 2.785 14.979 4.9 23.365-3.169-6.913-6.145-13.571-7.009-17.668a66.14 66.14 0 0 0 .988 12.068 76.525 76.525 0 0 1 -3.681-13.411c-.384 4 .224 9.314 1.088 15.011-3.841-9.154-6.657-18.052-7.842-26.373" fill="#65b54e"/><path d="m57.561 71.5a.5.5 0 0 1 -.455-.292c-2.406-5.25-4.667-10.288-6.018-14.215.161 2.616.553 5.589.95 8.333a.5.5 0 0 1 -.967.235c-.985-2.843-2.018-5.97-2.778-8.961a102.571 102.571 0 0 0 1.152 10.323.5.5 0 0 1 -.955.269c-4.181-9.963-6.757-18.63-7.876-26.5a.5.5 0 0 1 .99-.141 101.346 101.346 0 0 0 6.283 22.492 53.344 53.344 0 0 1 -.522-11.107.5.5 0 0 1 .993-.021 55.633 55.633 0 0 0 2.013 8.341 43.439 43.439 0 0 1 -.319-6.959.5.5 0 0 1 .988-.072c.644 3.053 2.5 7.6 4.755 12.664-1.652-6.964-2.845-12.95-3.627-18.185a.5.5 0 0 1 .989-.147c.966 6.468 2.564 14.094 4.887 23.316a.5.5 0 0 1 -.485.622z" fill="#323c6b"/><path d="m29.108 12.975c-2.764 1.222-4.2-.649-4.2-.649l.464-1.68 3.064-1.583 1.623 1.792.1 2.083z" fill="#fe7058"/><path d="m27.316 13.884a3.589 3.589 0 0 1 -2.8-1.253.5.5 0 0 1 -.085-.437l.464-1.68a.5.5 0 0 1 .252-.311l3.064-1.583a.5.5 0 0 1 .6.108l1.624 1.792a.5.5 0 0 1 .129.311l.1 2.083a.5.5 0 0 1 -.482.524l-.965.035a4.869 4.869 0 0 1 -1.901.411zm-1.849-1.694a2.994 2.994 0 0 0 3.438.328.5.5 0 0 1 .185-.042l.552-.02-.069-1.4-1.246-1.373-2.527 1.307z" fill="#323c6b"/><path d="m39.787 10.146s5.561 3.46 9.04 18.475 9.006 21.15 9.006 21.15-16.233-5.582-22.819-15.542c-6.417-9.7-5.146-17.116-5.146-17.116s-.041-7.911-5.8-8.946c0 0 .195-5.936 7.077-5.083a10.426 10.426 0 0 1 8.642 7.062z" fill="#6fc666"/><path d="m57.833 50.271a.494.494 0 0 1 -.162-.027c-.671-.23-16.471-5.752-23.071-15.744-6.452-9.757-5.275-17.166-5.222-17.476-.008 0-.123-7.421-5.4-8.37a.5.5 0 0 1 -.411-.509 6.323 6.323 0 0 1 2.042-4.259 6.974 6.974 0 0 1 5.6-1.3 11 11 0 0 1 9.006 7.242c.962.7 5.9 4.855 9.1 18.679 3.4 14.686 8.836 20.868 8.891 20.928a.5.5 0 0 1 -.372.834zm-33.222-42.498c5.648 1.417 5.756 9.256 5.756 9.337-.019.159-1.154 7.44 5.063 16.842 5.2 7.86 16.679 13.02 20.937 14.726-1.807-2.592-5.456-8.842-8.028-19.945-3.391-14.643-8.762-18.133-8.816-18.163a.5.5 0 0 1 -.217-.287 9.835 9.835 0 0 0 -8.227-6.7 6.048 6.048 0 0 0 -4.815 1.064 5.241 5.241 0 0 0 -1.653 3.126z" fill="#323c6b"/><path d="m41.632 18.125a.65.65 0 0 1 -.569-.335 17.93 17.93 0 0 0 -3.733-4.957.65.65 0 0 1 .848-.986 19.243 19.243 0 0 1 4.022 5.314.65.65 0 0 1 -.568.965z" fill="#fff"/><path d="m24.052 8.177s-3.208 2.542.823 7c0 0-.809-2.162.253-3.127a5.182 5.182 0 0 1 2.972-1.112 5.851 5.851 0 0 0 -4.048-2.761z" fill="#fe7058"/><path d="m24.875 15.681a.5.5 0 0 1 -.371-.165c-1.556-1.722-2.278-3.392-2.147-4.965a4.132 4.132 0 0 1 1.385-2.766.5.5 0 0 1 .411-.1 6.363 6.363 0 0 1 4.382 2.994.5.5 0 0 1 -.4.756 4.678 4.678 0 0 0 -2.682 1c-.652.592-.29 2.094-.111 2.573a.5.5 0 0 1 -.468.675zm-.675-6.958a3.172 3.172 0 0 0 -.85 1.931 4.528 4.528 0 0 0 .74 2.658 2.326 2.326 0 0 1 .7-1.627 5.352 5.352 0 0 1 2.436-1.132 5.341 5.341 0 0 0 -3.026-1.83z" fill="#323c6b"/><path d="m39.527 18.933c-2.26-2.736-6.582-2.682-7.013 1.118-1.097 5.949 9.886 14.414 13.786 14.073 0 0-.068-.816-.256-1.967a34.616 34.616 0 0 0 -6.517-13.224z" fill="#65b54e"/><g fill="#323c6b"><path d="m46.077 34.633c-2.551 0-7.283-2.89-10.556-6.49-2.685-2.953-3.927-5.859-3.5-8.184a3.636 3.636 0 0 1 2.548-3.276 5.306 5.306 0 0 1 5.342 1.931c3.554 4.3 6.172 10.691 6.623 13.462.188 1.157.258 1.972.26 2.005a.5.5 0 0 1 -.455.54c-.083.008-.171.012-.262.012zm-10.348-17.113a3.063 3.063 0 0 0 -.874.123 2.666 2.666 0 0 0 -1.844 2.464c-.376 2.044.78 4.647 3.25 7.364 2.924 3.216 7.152 5.923 9.481 6.149-.04-.342-.1-.823-.194-1.382a34.15 34.15 0 0 0 -6.407-12.986 4.6 4.6 0 0 0 -3.412-1.732z"/><path d="m28.842 35.125a.5.5 0 0 1 -.209-.955 6.038 6.038 0 0 0 3.308-4.559.5.5 0 1 1 1 .1 6.979 6.979 0 0 1 -3.891 5.369.5.5 0 0 1 -.208.045z"/><path d="m31.5 35.125a.5.5 0 0 1 -.319-.115l-2.213-1.836a.5.5 0 1 1 .639-.77l2.213 1.836a.5.5 0 0 1 -.32.885z"/><path d="m32.438 39.17a.5.5 0 0 1 -.208-.955 5.7 5.7 0 0 0 2.96-3.233.5.5 0 1 1 .935.355 6.678 6.678 0 0 1 -3.479 3.787.5.5 0 0 1 -.208.046z"/><path d="m35.1 39.17a.5.5 0 0 1 -.319-.115l-2.213-1.836a.5.5 0 1 1 .639-.77l2.213 1.836a.5.5 0 0 1 -.32.885z"/><path d="m29.075 29.958a.5.5 0 0 1 -.462-.309 30.279 30.279 0 0 1 -2.241-8.813.5.5 0 1 1 1-.09 29.276 29.276 0 0 0 2.168 8.521.5.5 0 0 1 -.462.691z"/><path d="m26.774 19.208a.5.5 0 0 1 -.5-.5c0-.282.007-.541.016-.773a.506.506 0 0 1 .519-.48.5.5 0 0 1 .48.519c-.008.222-.014.469-.015.738a.5.5 0 0 1 -.5.496z"/><path d="m53.5 34.781a.5.5 0 0 1 -.476-.347l-.174-.551a.5.5 0 1 1 .955-.3l.171.542a.5.5 0 0 1 -.476.653z"/><path d="m58.4 45.563a.5.5 0 0 1 -.419-.227 47.51 47.51 0 0 1 -4.205-8.908.5.5 0 1 1 .935-.354 46.574 46.574 0 0 0 4.107 8.715.5.5 0 0 1 -.418.773z"/><path d="m37.1 43.809a.5.5 0 0 1 -.345-.138c-.024-.023-2.473-2.357-8.643-8.538-3.25-3.256-7.428-4.452-12.42-3.552a.5.5 0 0 1 -.177-.984c5.257-.945 9.859.377 13.3 3.83 6.158 6.169 8.6 8.5 8.624 8.52a.5.5 0 0 1 -.345.862z"/></g><path d="m20.491 33.1c-3.507.717-4.87 3.794-3.045 6.873 3.507-.715 4.871-3.792 3.045-6.873z" fill="#6fc666"/><path d="m17.446 40.475a.5.5 0 0 1 -.43-.245 4.819 4.819 0 0 1 3.375-7.618.5.5 0 0 1 .53.235 4.819 4.819 0 0 1 -3.375 7.618.5.5 0 0 1 -.1.01zm2.791-6.8a3.751 3.751 0 0 0 -2.537 5.725 3.751 3.751 0 0 0 2.537-5.728z" fill="#323c6b"/><path d="m18.74 37.786a.5.5 0 0 1 -.458-.7l2.683-6.148a.5.5 0 0 1 .917.4l-2.682 6.148a.5.5 0 0 1 -.46.3z" fill="#323c6b"/><path d="m23.7 29.662c1.216-3.367-.7-6.134-4.279-6.18-1.221 3.366.699 6.133 4.279 6.18z" fill="#6fc666"/><path d="m23.7 30.162h-.006a5.15 5.15 0 0 1 -4.344-2.062 5.151 5.151 0 0 1 -.4-4.79.5.5 0 0 1 .477-.33 5.152 5.152 0 0 1 4.343 2.061 5.15 5.15 0 0 1 .4 4.789.5.5 0 0 1 -.47.332zm-3.924-6.162a4.056 4.056 0 0 0 .4 3.536 4.056 4.056 0 0 0 3.17 1.614 3.751 3.751 0 0 0 -3.57-5.15z" fill="#323c6b"/><path d="m25.1 32.792a.5.5 0 0 1 -.435-.253l-3.221-5.668a.5.5 0 1 1 .869-.494l3.221 5.668a.5.5 0 0 1 -.434.747z" fill="#323c6b"/><circle cx="29.545" cy="6.301" fill="#323c6b" r="1.106" transform="matrix(.998 -.062 .062 .998 -.336 1.857)"/><path d="m36 10.565a.649.649 0 0 1 -.643-.56 2.143 2.143 0 0 0 -.28-.79.65.65 0 1 1 1.123-.658 3.422 3.422 0 0 1 .446 1.268.649.649 0 0 1 -.554.733.641.641 0 0 1 -.092.007z" fill="#fff"/></g></svg>